<svg width="44" height="44" viewBox="0 0 44 44" fill="none" xmlns="http://www.w3.org/2000/svg">
<path d="M36.5917 9.68009V8.74982C36.5917 5.00193 32.612 2.15921 28.4361 3.11698C25.9189 -1.13692 19.1951 -0.960746 16.8485 3.18117C12.7943 2.27359 8.75518 4.97967 8.75518 8.76563V19.6049C6.79551 18.9666 4.50172 19.1694 2.65774 20.3673C-0.225341 22.2403 -0.857744 25.8099 1.22872 28.3726L13.0114 42.8457C13.3021 43.2027 13.686 43.4937 14.1313 43.6944C14.5765 43.8952 15.0702 44 15.5711 44H37.4628C38.9265 44 40.1965 43.1158 40.5253 41.8676L43.4898 30.6135C43.8286 29.3264 43.9997 28.0098 44 26.6891V15.3828C44 11.892 40.5111 9.19601 36.5917 9.68009ZM39.2854 26.689C39.2854 27.6971 39.1544 28.7058 38.896 29.687L36.2123 39.8749H16.3808L5.06694 25.9791C3.64882 24.2372 6.54241 22.3031 7.95385 24.0365L10.6182 27.3089C11.5017 28.394 13.4695 27.8492 13.4695 26.5112V8.76563C13.4695 6.56177 17.0613 6.63353 17.0613 8.82502V22C17.0613 22.7594 17.7648 23.375 18.6327 23.375H19.3061C20.174 23.375 20.8775 22.7594 20.8775 22V5.75783C20.8775 3.55242 24.4693 3.62573 24.4693 5.81721V22C24.4693 22.7594 25.1728 23.375 26.0407 23.375H26.7141C27.582 23.375 28.2855 22.7594 28.2855 22V8.69044C28.2855 6.48426 31.8772 6.55834 31.8772 8.74982V22C31.8772 22.7594 32.5807 23.375 33.4486 23.375H34.1221C34.99 23.375 35.6935 22.7594 35.6935 22V15.4422C35.6935 13.187 39.2852 13.2388 39.2852 15.3828L39.2854 26.689Z" fill="#FF8811"/>
</svg>
