<svg width="44" height="44" viewBox="0 0 44 44" fill="none" xmlns="http://www.w3.org/2000/svg">
<path d="M35.1368 4.62115C33.2117 1.29188 29.4556 0.469336 26.645 2.30447C24.1121 -0.786236 19.8435 -0.749308 17.3351 2.30231C13.2822 -0.351442 7.99279 2.79878 7.82427 8.27433C3.85395 7.20959 0 10.6072 0 15.2653V20.8589C0 24.0746 1.22719 27.1401 3.36703 29.2694L11.764 37.6256C12.1294 37.9892 12.0312 38.1729 12.0312 40.8571C12.0312 42.5929 13.2625 44 14.7812 44H36.4375C37.9563 44 39.1875 42.5929 39.1875 40.8571C39.1875 38.5478 39.1003 37.8375 39.5297 36.6958L43.2108 26.9081C43.7345 25.5158 44 24.043 44 22.5309V11.291C44 6.10144 39.3324 2.58311 35.1368 4.62115ZM39.875 22.5309C39.8756 23.3961 39.7211 24.2522 39.4211 25.0465L35.7399 34.834C35.2905 36.0294 35.0625 37.2933 35.0625 38.5907V39.2857H16.1562V38.2755C16.1562 36.6677 15.5427 35.1349 14.4727 34.0702L6.07578 25.7142C4.83605 24.4804 4.125 22.7107 4.125 20.8588V15.2652C4.125 12.0037 8.59375 11.9714 8.59375 15.3317V19.3809C8.59375 19.6055 8.63588 19.8275 8.71731 20.032C8.79874 20.2364 8.91757 20.4185 9.0658 20.5661L9.66737 21.1647C9.86637 21.3627 10.111 21.4911 10.3721 21.5346C10.6333 21.578 10.8998 21.5347 11.14 21.4098C11.3801 21.2848 11.5838 21.0836 11.7266 20.83C11.8694 20.5764 11.9453 20.2812 11.9453 19.9796V8.53057C11.9453 5.27997 16.4141 5.21829 16.4141 8.59706V11.2244C16.4141 12.0922 17.0297 12.7958 17.7891 12.7958H18.3906C19.15 12.7958 19.7656 12.0922 19.7656 11.2244V7.18356C19.7656 3.92933 24.2344 3.8762 24.2344 7.25005V11.2244C24.2344 12.0922 24.8499 12.7958 25.6094 12.7958H26.2109C26.9704 12.7958 27.5859 12.0922 27.5859 11.2244V8.53048C27.5859 5.28646 32.0547 5.21279 32.0547 8.59697V11.2243C32.0547 12.0921 32.6703 12.7957 33.4297 12.7957H34.0313C34.7907 12.7957 35.4062 12.0921 35.4062 11.2243C35.4062 7.96889 39.875 7.92302 39.875 11.2908V22.5309Z" fill="#FF8811"/>
</svg>
