<svg width="51" height="44" viewBox="0 0 51 44" fill="none" xmlns="http://www.w3.org/2000/svg">
<path d="M25.1428 44L32.0178 43.9987C32.5201 43.9987 33.0227 43.9415 33.511 43.8289L45.1984 41.1352C48.18 40.4481 50.2857 37.8145 50.2857 34.7951V14.5922C50.2857 12.2503 49.0059 10.0792 46.9459 8.92623L37.321 3.53889C33.9416 1.64718 30.7148 2.96689 28.2639 5.96802L14.0299 0.491891C10.3089 -0.939974 6.11266 0.857936 4.6365 4.53841C3.15366 8.23539 4.99351 12.4319 8.7558 13.8798L16.5 15.7143L7.26785 14.8165C3.26032 14.8165 0 18.039 0 21.9999C0 25.9609 3.26032 29.1834 7.26785 29.1834H15.8749C15.5139 31.761 16.7285 34.2215 18.8548 35.5679C17.5467 39.751 20.7275 44 25.1428 44ZM25.1428 39.2844C22.6718 39.2844 22.6757 35.693 25.1428 35.693C26.0108 35.693 26.7143 34.9895 26.7143 34.1216V33.4483C26.7143 32.5803 26.0108 31.8768 25.1428 31.8768H22.3928C19.9219 31.8768 19.9255 28.2854 22.3928 28.2854H25.1428C26.0108 28.2854 26.7143 27.5819 26.7143 26.714V26.0406C26.7143 25.1727 26.0108 24.4692 25.1428 24.4692H7.26785C3.88634 24.4692 3.89174 19.5309 7.26785 19.5309H25.1428C26.0108 19.5309 26.7143 18.8274 26.7143 17.9595V16.8171C26.7143 16.4995 26.618 16.1893 26.4383 15.9275C26.2585 15.6657 26.0036 15.4645 25.7072 15.3504L10.4489 9.47869C7.35006 8.28637 9.1297 3.65625 12.3368 4.89041L28.6943 11.1851C29.0032 11.3039 29.3417 11.3222 29.6616 11.2373C29.9815 11.1525 30.2664 10.9688 30.4758 10.7125L32.6133 8.09534C33.1849 7.39537 34.2189 7.20513 35.0184 7.65259L44.6434 13.04C45.2158 13.3605 45.5714 13.9552 45.5714 14.5923V34.7951C45.5714 35.629 44.9827 36.3472 44.1398 36.5415L32.4522 39.2352C32.3098 39.268 32.164 39.2845 32.0178 39.2845H25.1428V39.2844Z" fill="#FF8811"/>
</svg>
